<svg xmlns="http://www.w3.org/2000/svg" xmlns:xlink="http://www.w3.org/1999/xlink" width="1200" zoomAndPan="magnify" viewBox="0 0 900 899.99999" height="1200" preserveAspectRatio="xMidYMid meet" version="1.0"><defs><g/></defs><rect x="-90" width="1080" fill="#ffffff" y="-89.999999" height="1079.999988" fill-opacity="1"/><rect x="-90" width="1080" fill="#ffffff" y="-89.999999" height="1079.999988" fill-opacity="1"/><rect x="-90" width="1080" fill="#d9d9d9" y="-89.999999" height="1079.999988" fill-opacity="1"/><g fill="#000000" fill-opacity="1"><g transform="translate(391.532797, 462.374996)"><g><path d="M 4.46875 -22.9375 C 3.84375 -22.9375 3.3125 -23.148438 2.875 -23.578125 C 2.445312 -24.015625 2.234375 -24.539062 2.234375 -25.15625 C 2.234375 -25.78125 2.445312 -26.304688 2.875 -26.734375 C 3.3125 -27.171875 3.84375 -27.390625 4.46875 -27.390625 C 5.0625 -27.390625 5.566406 -27.171875 5.984375 -26.734375 C 6.410156 -26.304688 6.625 -25.78125 6.625 -25.15625 C 6.625 -24.539062 6.410156 -24.015625 5.984375 -23.578125 C 5.566406 -23.148438 5.0625 -22.9375 4.46875 -22.9375 Z M 6.046875 -19.734375 L 6.046875 0 L 2.765625 0 L 2.765625 -19.734375 Z M 6.046875 -19.734375 "/></g></g></g><g fill="#000000" fill-opacity="1"><g transform="translate(400.388819, 462.374996)"><g><path d="M 26.5 -20.09375 C 28.03125 -20.09375 29.394531 -19.773438 30.59375 -19.140625 C 31.800781 -18.503906 32.75 -17.546875 33.4375 -16.265625 C 34.132812 -14.992188 34.484375 -13.445312 34.484375 -11.625 L 34.484375 0 L 31.25 0 L 31.25 -11.15625 C 31.25 -13.125 30.757812 -14.628906 29.78125 -15.671875 C 28.8125 -16.722656 27.5 -17.25 25.84375 -17.25 C 24.144531 -17.25 22.789062 -16.703125 21.78125 -15.609375 C 20.769531 -14.515625 20.265625 -12.9375 20.265625 -10.875 L 20.265625 0 L 17.03125 0 L 17.03125 -11.15625 C 17.03125 -13.125 16.539062 -14.628906 15.5625 -15.671875 C 14.59375 -16.722656 13.28125 -17.25 11.625 -17.25 C 9.925781 -17.25 8.570312 -16.703125 7.5625 -15.609375 C 6.550781 -14.515625 6.046875 -12.9375 6.046875 -10.875 L 6.046875 0 L 2.765625 0 L 2.765625 -19.734375 L 6.046875 -19.734375 L 6.046875 -16.890625 C 6.691406 -17.921875 7.5625 -18.710938 8.65625 -19.265625 C 9.75 -19.816406 10.957031 -20.09375 12.28125 -20.09375 C 13.9375 -20.09375 15.398438 -19.71875 16.671875 -18.96875 C 17.941406 -18.226562 18.890625 -17.140625 19.515625 -15.703125 C 20.066406 -17.085938 20.976562 -18.164062 22.25 -18.9375 C 23.519531 -19.707031 24.9375 -20.09375 26.5 -20.09375 Z M 26.5 -20.09375 "/></g></g></g><g fill="#000000" fill-opacity="1"><g transform="translate(437.468887, 462.374996)"><g><path d="M 1.546875 -9.9375 C 1.546875 -11.945312 1.953125 -13.710938 2.765625 -15.234375 C 3.585938 -16.765625 4.710938 -17.945312 6.140625 -18.78125 C 7.566406 -19.625 9.15625 -20.046875 10.90625 -20.046875 C 12.632812 -20.046875 14.132812 -19.671875 15.40625 -18.921875 C 16.675781 -18.179688 17.625 -17.25 18.25 -16.125 L 18.25 -19.734375 L 21.5625 -19.734375 L 21.5625 0 L 18.25 0 L 18.25 -3.671875 C 17.601562 -2.515625 16.632812 -1.554688 15.34375 -0.796875 C 14.0625 -0.046875 12.570312 0.328125 10.875 0.328125 C 9.125 0.328125 7.539062 -0.101562 6.125 -0.96875 C 4.707031 -1.832031 3.585938 -3.046875 2.765625 -4.609375 C 1.953125 -6.171875 1.546875 -7.945312 1.546875 -9.9375 Z M 18.25 -9.90625 C 18.25 -11.382812 17.945312 -12.675781 17.34375 -13.78125 C 16.75 -14.882812 15.941406 -15.726562 14.921875 -16.3125 C 13.898438 -16.90625 12.78125 -17.203125 11.5625 -17.203125 C 10.332031 -17.203125 9.210938 -16.914062 8.203125 -16.34375 C 7.203125 -15.769531 6.398438 -14.929688 5.796875 -13.828125 C 5.191406 -12.722656 4.890625 -11.425781 4.890625 -9.9375 C 4.890625 -8.425781 5.191406 -7.109375 5.796875 -5.984375 C 6.398438 -4.867188 7.203125 -4.019531 8.203125 -3.4375 C 9.210938 -2.851562 10.332031 -2.5625 11.5625 -2.5625 C 12.78125 -2.5625 13.898438 -2.851562 14.921875 -3.4375 C 15.941406 -4.019531 16.75 -4.867188 17.34375 -5.984375 C 17.945312 -7.109375 18.25 -8.414062 18.25 -9.90625 Z M 18.25 -9.90625 "/></g></g></g><g fill="#000000" fill-opacity="1"><g transform="translate(461.80493, 462.374996)"><g><path d="M 10.90625 -20.046875 C 12.613281 -20.046875 14.109375 -19.671875 15.390625 -18.921875 C 16.671875 -18.179688 17.625 -17.25 18.25 -16.125 L 18.25 -19.734375 L 21.5625 -19.734375 L 21.5625 0.4375 C 21.5625 2.226562 21.175781 3.828125 20.40625 5.234375 C 19.644531 6.640625 18.546875 7.738281 17.109375 8.53125 C 15.679688 9.320312 14.019531 9.71875 12.125 9.71875 C 9.539062 9.71875 7.382812 9.101562 5.65625 7.875 C 3.925781 6.65625 2.90625 4.988281 2.59375 2.875 L 5.828125 2.875 C 6.191406 4.082031 6.9375 5.050781 8.0625 5.78125 C 9.1875 6.507812 10.539062 6.875 12.125 6.875 C 13.925781 6.875 15.394531 6.304688 16.53125 5.171875 C 17.675781 4.046875 18.25 2.46875 18.25 0.4375 L 18.25 -3.703125 C 17.601562 -2.554688 16.644531 -1.597656 15.375 -0.828125 C 14.101562 -0.0546875 12.613281 0.328125 10.90625 0.328125 C 9.15625 0.328125 7.566406 -0.101562 6.140625 -0.96875 C 4.710938 -1.832031 3.585938 -3.046875 2.765625 -4.609375 C 1.953125 -6.171875 1.546875 -7.945312 1.546875 -9.9375 C 1.546875 -11.945312 1.953125 -13.710938 2.765625 -15.234375 C 3.585938 -16.765625 4.710938 -17.945312 6.140625 -18.78125 C 7.566406 -19.625 9.15625 -20.046875 10.90625 -20.046875 Z M 18.25 -9.90625 C 18.25 -11.382812 17.945312 -12.675781 17.34375 -13.78125 C 16.75 -14.882812 15.941406 -15.726562 14.921875 -16.3125 C 13.898438 -16.90625 12.78125 -17.203125 11.5625 -17.203125 C 10.332031 -17.203125 9.210938 -16.914062 8.203125 -16.34375 C 7.203125 -15.769531 6.398438 -14.929688 5.796875 -13.828125 C 5.191406 -12.722656 4.890625 -11.425781 4.890625 -9.9375 C 4.890625 -8.425781 5.191406 -7.109375 5.796875 -5.984375 C 6.398438 -4.867188 7.203125 -4.019531 8.203125 -3.4375 C 9.210938 -2.851562 10.332031 -2.5625 11.5625 -2.5625 C 12.78125 -2.5625 13.898438 -2.851562 14.921875 -3.4375 C 15.941406 -4.019531 16.75 -4.867188 17.34375 -5.984375 C 17.945312 -7.109375 18.25 -8.414062 18.25 -9.90625 Z M 18.25 -9.90625 "/></g></g></g><g fill="#000000" fill-opacity="1"><g transform="translate(486.140973, 462.374996)"><g><path d="M 20.765625 -10.625 C 20.765625 -10 20.726562 -9.335938 20.65625 -8.640625 L 4.890625 -8.640625 C 5.015625 -6.691406 5.679688 -5.171875 6.890625 -4.078125 C 8.109375 -2.992188 9.578125 -2.453125 11.296875 -2.453125 C 12.710938 -2.453125 13.894531 -2.78125 14.84375 -3.4375 C 15.789062 -4.09375 16.457031 -4.972656 16.84375 -6.078125 L 20.375 -6.078125 C 19.84375 -4.179688 18.785156 -2.640625 17.203125 -1.453125 C 15.617188 -0.265625 13.648438 0.328125 11.296875 0.328125 C 9.429688 0.328125 7.757812 -0.09375 6.28125 -0.9375 C 4.800781 -1.78125 3.640625 -2.972656 2.796875 -4.515625 C 1.960938 -6.066406 1.546875 -7.863281 1.546875 -9.90625 C 1.546875 -11.9375 1.953125 -13.71875 2.765625 -15.25 C 3.585938 -16.789062 4.734375 -17.972656 6.203125 -18.796875 C 7.679688 -19.628906 9.378906 -20.046875 11.296875 -20.046875 C 13.171875 -20.046875 14.828125 -19.640625 16.265625 -18.828125 C 17.710938 -18.015625 18.820312 -16.890625 19.59375 -15.453125 C 20.375 -14.023438 20.765625 -12.414062 20.765625 -10.625 Z M 17.390625 -11.296875 C 17.390625 -12.546875 17.113281 -13.617188 16.5625 -14.515625 C 16.007812 -15.421875 15.257812 -16.109375 14.3125 -16.578125 C 13.363281 -17.046875 12.3125 -17.28125 11.15625 -17.28125 C 9.5 -17.28125 8.085938 -16.75 6.921875 -15.6875 C 5.765625 -14.632812 5.101562 -13.171875 4.9375 -11.296875 Z M 17.390625 -11.296875 "/></g></g></g></svg>